<?xml version="1.0" encoding="UTF-8"?>
<svg xmlns="http://www.w3.org/2000/svg" version="1.1" viewBox="0 0 1000 1000">
  <!-- Generator: Adobe Illustrator 28.6.0, SVG Export Plug-In . SVG Version: 1.2.0 Build 709)  -->
  <g>
    <g id="Vrstva_1">
      <path d="M942.6,766.2h-183.8V205.6c0-15.2-12.3-27.5-27.6-27.5h-441.6c-15.2,0-27.6,12.3-27.6,27.5v560.6H57.4c-15.2,0-27.6,12.3-27.6,27.5s12.3,27.5,27.6,27.5h226.1c2,.5,4,.7,6.2.7h441.6c2.1,0,4.2-.2,6.2-.7h205.2c15.2,0,27.6-12.3,27.6-27.5s-12.3-27.5-27.6-27.5ZM317.2,233.1h386.5v533h-386.5V233.1Z"/>
    </g>
  </g>
</svg>