<?xml version="1.0" encoding="UTF-8"?>
<svg xmlns="http://www.w3.org/2000/svg" version="1.1" viewBox="0 0 1000 1000">
  <!-- Generator: Adobe Illustrator 28.6.0, SVG Export Plug-In . SVG Version: 1.2.0 Build 709)  -->
  <g>
    <g id="Vrstva_1">
      <path d="M-447.1,350.4h0Z"/>
      <path d="M505,928.7c-8.6,0-16.7-4-21.9-10.8l-309-405c-7.5-9.8-7.5-23.4-.1-33.3L473,82.2c5.2-6.9,13.3-11,21.9-11h0c8.6,0,16.7,4,21.9,10.8l309,405c7.5,9.8,7.5,23.4.1,33.3l-298.9,397.4c-5.2,6.9-13.3,11-21.9,11h0ZM230.6,496l274.3,359.5,264.5-351.6L495.1,144.4,230.6,496Z"/>
    </g>
  </g>
</svg>