<?xml version="1.0" encoding="UTF-8"?>
<svg xmlns="http://www.w3.org/2000/svg" version="1.1" viewBox="0 0 1000 1000">
  <!-- Generator: Adobe Illustrator 28.6.0, SVG Export Plug-In . SVG Version: 1.2.0 Build 709)  -->
  <g>
    <g id="Vrstva_1">
      <g>
        <path d="M500,204.7c15.2,0,27.6-12.3,27.6-27.5v-96.7c0-15.2-12.3-27.5-27.6-27.5s-27.6,12.3-27.6,27.5v96.7c0,15.2,12.3,27.5,27.6,27.5Z"/>
        <path d="M500,795.3c-15.2,0-27.6,12.3-27.6,27.5v96.7c0,15.2,12.3,27.5,27.6,27.5s27.6-12.3,27.6-27.5v-96.7c0-15.2-12.3-27.5-27.6-27.5Z"/>
        <path d="M785.2,214.8c-10.8-10.8-28.2-10.8-39,0l-246.2,246.2-246.2-246.2c-10.8-10.8-28.2-10.8-39,0-10.8,10.8-10.8,28.2,0,39l246.2,246.2-246.2,246.2c-10.8,10.8-10.8,28.2,0,39,5.4,5.4,12.4,8.1,19.5,8.1s14.1-2.7,19.5-8.1l246.2-246.2,246.2,246.2c5.4,5.4,12.4,8.1,19.5,8.1s14.1-2.7,19.5-8.1c10.8-10.8,10.8-28.2,0-39l-246.2-246.2,246.2-246.2c10.8-10.8,10.8-28.2,0-39Z"/>
        <path d="M177.1,472.5h-96.7c-15.2,0-27.6,12.3-27.6,27.5s12.3,27.5,27.6,27.5h96.7c15.2,0,27.6-12.3,27.6-27.5s-12.3-27.5-27.6-27.5Z"/>
        <path d="M919.6,472.5h-96.7c-15.2,0-27.6,12.3-27.6,27.5s12.3,27.5,27.6,27.5h96.7c15.2,0,27.6-12.3,27.6-27.5s-12.3-27.5-27.6-27.5Z"/>
      </g>
    </g>
  </g>
</svg>