<?xml version="1.0" encoding="UTF-8"?>
<svg xmlns="http://www.w3.org/2000/svg" version="1.1" viewBox="0 0 1000 1000">
  <!-- Generator: Adobe Illustrator 28.6.0, SVG Export Plug-In . SVG Version: 1.2.0 Build 709)  -->
  <g>
    <g id="Vrstva_1">
      <path d="M836.2,763.5c-5.6,0-11.1-1.7-15.8-5l-320.3-224.8-320.3,224.8c-8.4,5.9-19.4,6.6-28.5,1.9-9.1-4.7-14.8-14.2-14.8-24.4v-471.9c0-10.3,5.7-19.7,14.8-24.4,9.1-4.7,20.1-4,28.5,1.9l320.3,224.8,320.3-224.8c8.4-5.9,19.4-6.6,28.5-1.9,9.1,4.7,14.8,14.2,14.8,24.4v471.9c0,10.3-5.7,19.7-14.8,24.4-4,2.1-8.4,3.1-12.7,3.1ZM548,500l260.6,182.9v-365.9l-260.6,182.9ZM191.4,317.1v365.9l260.6-182.9-260.6-182.9Z"/>
    </g>
  </g>
</svg>