<?xml version="1.0" encoding="UTF-8"?>
<svg xmlns="http://www.w3.org/2000/svg" version="1.1" viewBox="0 0 1000 1000">
  <!-- Generator: Adobe Illustrator 28.6.0, SVG Export Plug-In . SVG Version: 1.2.0 Build 709)  -->
  <g>
    <g id="Vrstva_1">
      <path d="M-101.3,350.4h0Z"/>
      <path d="M859.4,587.5c-9.8,11.7-27.2,13.1-38.8,3.4l-148.2-124.6-144.5,124.5c-5.2,4.5-11.6,6.7-18,6.7s-6.9-.7-10.2-2c-9,3.4-19.6,2-27.5-4.7l-148.2-124.6-144.4,124.5c-5.2,4.5-11.6,6.7-18,6.7s-15.4-3.2-20.9-9.6c-9.9-11.5-8.6-28.9,2.9-38.9l162.2-139.8c10.2-8.8,25.4-8.9,35.7-.2l158.4,133.1,154.2-132.9c10.2-8.8,25.4-8.9,35.7-.2l166.1,139.7c11.6,9.8,13.2,27.2,3.3,38.8Z"/>
      <path d="M-447.1,350.4h0Z"/>
      <path d="M288.8,350.4h0Z"/>
      <path d="M-57,350.4h0Z"/>
    </g>
  </g>
</svg>