<?xml version="1.0" encoding="UTF-8"?>
<svg xmlns="http://www.w3.org/2000/svg" version="1.1" viewBox="0 0 1000 1000">
  <!-- Generator: Adobe Illustrator 28.6.0, SVG Export Plug-In . SVG Version: 1.2.0 Build 709)  -->
  <g>
    <g id="Vrstva_1">
      <g>
        <path d="M232.8,862.4c-7,0-14.1-2.7-19.5-8.1l-68.4-68.4c-10.8-10.8-10.8-28.2,0-39,10.8-10.8,28.2-10.8,39,0l68.4,68.4c10.8,10.8,10.8,28.2,0,39-5.4,5.4-12.4,8.1-19.5,8.1Z"/>
        <path d="M433.2,806.3c-68,0-131.1-18.4-175.7-63-126.1-126.1-42.8-399,72.7-514.5,121.6-121.6,319.6-121.4,441.5.4,121.8,121.8,122,319.9.4,441.5-74.6,74.6-214.9,135.7-338.8,135.7ZM550.5,192.7c-65.7,0-131.4,25-181.4,75-52,52-95,137.7-112.2,223.6-18.4,91.9-4,169.5,39.5,213,43.5,43.5,121.1,57.9,213,39.5,85.9-17.2,171.6-60.1,223.6-112.2,100.1-100.1,99.9-263.2-.4-363.6-50.2-50.2-116.2-75.4-182.1-75.4Z"/>
      </g>
    </g>
  </g>
</svg>