<?xml version="1.0" encoding="UTF-8"?>
<svg xmlns="http://www.w3.org/2000/svg" version="1.1" viewBox="0 0 1000 1000">
  <!-- Generator: Adobe Illustrator 28.6.0, SVG Export Plug-In . SVG Version: 1.2.0 Build 709)  -->
  <g>
    <g id="Vrstva_1">
      <path d="M-447.1,350.4h0Z"/>
      <g>
        <path d="M355.1,783.1c-7,0-14.1-2.7-19.4-8l-248.5-247.6c-5.2-5.2-8.1-12.2-8.1-19.5s2.9-14.3,8.1-19.5L481.5,95.5c5.8-5.7,13.5-8.4,20.9-8,7.6-.5,15.5,2.1,21.3,8l389.1,387.7c5.2,5.2,8.1,12.2,8.1,19.5s-2.9,14.3-8.1,19.5l-251.9,251c-10.8,10.7-28.1,10.7-38.9,0l-122.8-122.4-124.7,124.3c-5.4,5.4-12.4,8-19.4,8ZM145.6,507.9l209.5,208.7,124.7-124.3c10.8-10.7,28.1-10.7,38.9,0l122.8,122.4,212.8-212.1L502.6,152.2,145.6,507.9Z"/>
        <path d="M500,912.5c-15.2,0-27.6-12.3-27.6-27.5v-140.7c0-15.2,12.3-27.5,27.6-27.5s27.6,12.3,27.6,27.5v140.7c0,15.2-12.3,27.5-27.6,27.5Z"/>
      </g>
    </g>
  </g>
</svg>