<?xml version="1.0" encoding="UTF-8"?>
<svg xmlns="http://www.w3.org/2000/svg" version="1.1" viewBox="0 0 1000 1000">
  <!-- Generator: Adobe Illustrator 28.6.0, SVG Export Plug-In . SVG Version: 1.2.0 Build 709)  -->
  <g>
    <g id="Vrstva_1">
      <path d="M-447.1,350.4h0Z"/>
      <path d="M495.7,847.9c-7,0-14.1-2.7-19.4-8L87.1,452.1c-5.2-5.2-8.1-12.2-8.1-19.5s2.9-14.3,8.1-19.5l251.9-251c10.8-10.7,28.1-10.7,38.9,0l122.8,122.4,124.7-124.3c10.8-10.7,28.1-10.7,38.9,0l248.5,247.6c5.2,5.2,8.1,12.2,8.1,19.5s-2.9,14.3-8.1,19.5l-394.3,392.9c-5.8,5.7-13.4,8.4-20.9,8-.6,0-1.3,0-1.9,0ZM145.6,432.6l351.8,350.5,357-355.7-209.5-208.7-124.7,124.3c-10.8,10.7-28.1,10.7-38.9,0l-122.8-122.4-212.8,212.1Z"/>
    </g>
  </g>
</svg>